<svg xmlns="http://www.w3.org/2000/svg" xmlns:xlink="http://www.w3.org/1999/xlink" id="Layer_1" x="0px" y="0px" width="1919.869px" height="385.584px" viewBox="0.06 4087.207 1919.869 385.584" xml:space="preserve">
<g id="Layer_2">
	<g id="LOGO">
		<path d="M204.635,4305.379L204.635,4305.379c-69.716-50.878-109.826-105.552-90.726-125.631c9.813-10.314,33.425-9.551,64.225,0    c-27.791-13.107-45.84-19.912-45.84-19.912c-59.688-22.037-106.675-26.263-124.629-7.473    c-30.513,31.85,33.449,118.922,144.469,199.859l4.131,2.793L204.635,4305.379z"></path>
		<path d="M375.749,4309.939c23.875,27.958,33.067,51.762,21.821,63.58c-18.599,19.554-86.93-0.454-158.292-44.814l-35.813,58.185    l3.82,2.578c113.693,70.671,222.541,102.521,252.146,71.388C483.736,4435.309,447.757,4374.617,375.749,4309.939z"></path>
		<path fill="#0055B8" d="M346,4087.207h-44.479v232.02c14.241,7.73,29.123,14.217,44.479,19.387V4087.207z"></path>
		<path fill="#009ADE" d="M289.75,4312.828v-169.061h-44.479v141.246l1.504,1.051    C261.458,4296.092,275.998,4305.093,289.75,4312.828z"></path>
		<path fill="#A3DAF7" d="M188.997,4240.653c14.094,12.911,28.956,24.958,44.503,36.076v-104.574h-44.503V4240.653z"></path>
		<path d="M442.098,4155.085h32.829v157.743h-32.829V4155.085z"></path>
		<path d="M487.724,4255.146v-0.453c0-38.678,25.284-59.832,52.717-59.832c14.093-0.287,27.487,6.127,36.099,17.286v-15.113h32.829    v115.795h-32.829v-16.712c-7.998,10.815-19.1,18.789-36.099,18.789C513.438,4314.978,487.724,4293.8,487.724,4255.146z     M576.97,4255.146v-0.453c0-19.22-12.75-31.969-28.102-31.969s-28.388,12.51-28.388,31.969v0.453    c0,19.101,12.964,31.97,28.292,31.97S576.97,4274.365,576.97,4255.146z"></path>
		<path d="M626.988,4197.033h32.828v16.713c7.998-10.815,19.101-18.79,36.1-18.79c27.003,0,52.717,21.153,52.717,59.832v0.453    c0,38.654-25.284,59.831-52.717,59.831c-14.094,0.287-27.487-6.126-36.1-17.285v49.66h-32.828V4197.033z M715.78,4255.146v-0.453    c0-19.22-12.965-31.969-28.292-31.969c-15.328,0-28.102,12.749-28.102,31.969v0.453c0,19.101,12.749,31.97,28.102,31.97    C702.84,4287.115,715.78,4274.58,715.78,4255.146z"></path>
		<path d="M760.761,4155.085h32.853v157.743h-32.853V4155.085z"></path>
		<path d="M806.41,4255.146v-0.453c0-38.678,25.261-59.832,52.717-59.832c14.128-0.325,27.567,6.094,36.195,17.286v-15.113h32.852    v115.795h-32.852v-16.712c-7.998,10.815-19.101,18.789-36.076,18.789C832.124,4314.978,806.41,4293.8,806.41,4255.146z     M895.633,4255.146v-0.453c0-19.22-12.75-31.969-28.078-31.969s-28.315,12.51-28.315,31.969v0.453    c0,19.101,12.964,31.97,28.315,31.97S895.633,4274.365,895.633,4255.146z"></path>
		<path d="M939.276,4255.575v-0.43c-0.469-32.829,25.765-59.823,58.594-60.292c0.707-0.011,1.414-0.008,2.121,0.007    c21.822,0,35.431,7.33,46.246,19.435l-20.103,21.607c-7.33-7.783-14.684-12.749-26.264-12.749    c-16.521,0-28.148,14.468-28.148,31.539v0.453c0,17.716,11.437,31.97,29.391,31.97c11.006,0,18.575-4.775,26.573-12.32    l19.22,19.459c-11.222,12.295-24.186,21.153-47.321,21.153c-32.655,0.648-59.653-25.299-60.302-57.953    C939.271,4256.828,939.269,4256.201,939.276,4255.575z"></path>
		<path d="M1045.044,4255.575v-0.43c0-33.067,23.564-60.285,57.3-60.285c38.679,0,56.394,30.035,56.394,62.864    c0,2.603-0.215,5.61-0.43,8.643h-80.626c3.223,14.922,13.608,22.682,28.292,22.682c11.03,0,19.1-3.438,28.101-11.938l18.79,16.713    c-10.792,13.417-26.263,21.487-47.321,21.487C1070.758,4315.407,1045.044,4291.007,1045.044,4255.575z M1126.721,4245.834    c-1.934-14.683-10.576-24.615-24.424-24.615s-22.467,9.718-25.046,24.615H1126.721z"></path>
		<path d="M1202.812,4158.332h19.1v18.359h-19.1V4158.332z M1203.886,4201.116h16.713v111.712h-16.713V4201.116z"></path>
		<path d="M1248.055,4201.116h16.713v19.458c7.354-12.104,19.101-21.846,38.2-21.846c27.003,0,42.784,18.169,42.784,44.742v69.357    h-16.712v-65.251c0-20.747-11.245-33.712-30.895-33.712c-19.244,0-33.426,14.039-33.426,35.001v63.962h-16.713L1248.055,4201.116z    "></path>
		<path d="M1361.463,4298.575l8.428-11.938c12.104,9.072,25.498,14.325,38.678,14.325s23.111-6.9,23.111-17.716v-0.43    c0-11.245-13.18-15.566-27.862-19.674c-17.501-4.966-36.959-11.006-36.959-31.539v-0.43c0-19.1,15.996-31.969,38.033-31.969    c14.28,0.263,28.2,4.521,40.183,12.296l-7.568,12.534c-9.791-6.614-21.237-10.353-33.044-10.791    c-13.179,0-21.487,6.899-21.487,16.211v0.43c0,10.577,13.823,14.684,28.65,19.101c17.285,5.181,35.813,11.938,35.813,31.992v0.43    c0,21.178-17.501,33.426-39.776,33.426C1390.9,4314.598,1374.677,4308.888,1361.463,4298.575z"></path>
		<path d="M1466.562,4158.332h19.1v18.359h-19.1V4158.332z M1467.636,4201.116h16.713v111.712h-16.713V4201.116z"></path>
		<path d="M1509.418,4332.263l7.568-12.964c12.385,9.323,27.473,14.353,42.975,14.325c24.615,0,40.588-13.609,40.588-39.776v-13.251    c-9.717,12.965-23.326,23.565-43.858,23.565c-26.788,0-52.525-20.104-52.525-52.287v-0.406c0-32.637,25.929-52.74,52.525-52.74    c20.962,0,34.571,10.386,43.644,22.49v-20.103h16.713v92.254c0,17.286-5.181,30.465-14.325,39.562    c-9.956,9.932-24.854,14.897-42.569,14.897C1542.036,4348.022,1524.308,4342.583,1509.418,4332.263z M1601.026,4251.684v-0.43    c0-22.92-19.864-37.818-41.041-37.818c-21.178,0-38.679,14.684-38.679,37.604v0.43c0,22.467,17.931,38.01,38.679,38.01    C1581.162,4289.479,1601.026,4274.15,1601.026,4251.684z"></path>
		<path d="M1644.098,4155.085h16.713v65.489c7.329-12.104,19.1-21.846,38.2-21.846c27.026,0,42.784,18.169,42.784,44.742v69.357    h-16.713v-65.251c0-20.747-11.221-33.712-30.895-33.712c-19.219,0-33.425,14.039-33.425,35.001v63.962h-16.713L1644.098,4155.085z    "></path>
		<path d="M1770.445,4283.223V4215.8h-15.614v-14.684h15.566v-33.712h16.713v33.712h35.431v14.684h-35.455v65.274    c0,13.609,7.569,18.575,18.791,18.575c5.639,0.034,11.201-1.302,16.211-3.892v14.325c-6.195,3.25-13.108,4.893-20.104,4.774    C1784.055,4314.763,1770.445,4305.904,1770.445,4283.223z"></path>
		<path d="M1834.025,4298.575l8.404-11.938c12.104,9.072,25.498,14.325,38.678,14.325c13.179,0,23.135-6.9,23.135-17.716v-0.43    c0-11.245-13.179-15.566-27.886-19.674c-17.501-4.966-36.936-11.006-36.936-31.539v-0.43c0-19.1,15.997-31.969,38.033-31.969    c14.28,0.263,28.201,4.521,40.183,12.296l-7.616,12.511c-9.797-6.618-21.253-10.357-33.067-10.792    c-13.18,0-21.488,6.9-21.488,16.212v0.43c0,10.576,13.824,14.683,28.65,19.1c17.286,5.181,35.813,11.938,35.813,31.993v0.43    c0,21.178-17.501,33.426-39.753,33.426C1863.434,4314.573,1847.229,4308.872,1834.025,4298.575z"></path>
	</g>
</g>
</svg>